<svg xmlns="http://www.w3.org/2000/svg" viewBox="0 0 40 40" id="Logo-Discord--Streamline-Pixel" height="40" width="40">
  <desc>
    Logo Discord Streamline Icon: https://streamlinehq.com
  </desc>
  <title>logo-discord</title>
  <g>
    <path d="M38.0875 11.425h-1.9V7.6125h-1.9125V5.7125H32.375V3.8125h-3.8125V1.9h-3.8V0h-9.525v1.9H11.425v1.9125H7.6125v1.9H5.7125v1.9H3.8v3.8125H1.9v3.8125H0v9.525h1.9v3.8125h1.9v3.8h1.9125v1.9125h1.9v1.9h3.8125v1.9125h3.8125V40h9.525v-1.9h3.8v-1.9125h3.8125v-1.9h1.9V32.375h1.9125v-3.8h1.9v-3.8125H40v-9.525h-1.9125Zm-1.9 15.237499999999999h-1.9125v1.9125H32.375v1.9h-1.9v1.9h-7.625v-1.9h5.7125v-3.8125H11.425v3.8125h5.7125v1.9h-7.625v-1.9H7.6125v-1.9H5.7125v-1.9125H3.8v-9.525h1.9125v-3.8h1.9V11.425h1.9V9.525h7.625v1.9h5.7125V9.525h7.625v1.9h1.9v1.9125h1.9v3.8h1.9125Z" fill="#000000" stroke-width="1.25"></path>
    <path d="M22.85 17.137500000000003h3.8125v3.8125h-3.8125Z" fill="#000000" stroke-width="1.25"></path>
    <path d="M13.325 17.137500000000003h3.8125v3.8125h-3.8125Z" fill="#000000" stroke-width="1.25"></path>
  </g>
</svg>