<?xml version="1.0" encoding="UTF-8" standalone="no"?>
<!DOCTYPE svg PUBLIC "-//W3C//DTD SVG 1.1//EN" "http://www.w3.org/Graphics/SVG/1.1/DTD/svg11.dtd">
<svg width="100%" height="100%" viewBox="0 0 24 24" version="1.1" xmlns="http://www.w3.org/2000/svg" xmlns:xlink="http://www.w3.org/1999/xlink" xml:space="preserve" xmlns:serif="http://www.serif.com/" style="fill-rule:evenodd;clip-rule:evenodd;stroke-linejoin:round;stroke-miterlimit:2;">
    <path d="M11,6L9,6L9,7L8,7L8,8L7,8L7,9L5,9L5,8L4,8L4,7L3,7L3,6L4,6L4,5L5,5L5,4L6,4L6,3L7,3L7,2L8,2L8,1L17,1L17,2L19,2L19,3L20,3L20,4L19,4L19,5L18,5L18,6L14,6L14,5L11,5L11,6ZM3,15L3,16L2,16L2,15L1,15L1,9L2,9L2,8L3,8L3,9L4,9L4,10L5,10L5,11L6,11L6,13L5,13L5,14L4,14L4,15L3,15ZM21,17L21,19L20,19L20,20L19,20L19,19L18,19L18,18L17,18L17,17L18,17L18,15L19,15L19,14L13,14L13,13L12,13L12,11L13,11L13,10L22,10L22,11L23,11L23,14L22,14L22,17L21,17ZM4,18L3,18L3,17L4,17L4,16L5,16L5,15L7,15L7,16L8,16L8,17L9,17L9,18L11,18L11,19L14,19L14,18L16,18L16,19L17,19L17,20L18,20L18,21L19,21L19,22L16,22L16,23L8,23L8,22L7,22L7,21L6,21L6,20L5,20L5,19L4,19L4,18Z"/>
</svg>
