<svg xmlns="http://www.w3.org/2000/svg" viewBox="0 0 40 40" id="Social-Rewards-Reward-Gift--Streamline-Pixel" height="40" width="40">
  <desc>
    Social Rewards Reward Gift Streamline Icon: https://streamlinehq.com
  </desc>
  <title>social-rewards-reward-gift</title>
  <g>
    <path d="m33.325 16.1875 0 1.9 1.9125 0 0 11.4375 -1.9125 0 0 1.9 3.8125 0 0 -13.3375 1.9125 0 0 -5.7125 -1.9125 0 0 3.8125 -3.8125 0z" fill="#000000" stroke-width="1.25"></path>
    <path d="M35.237500000000004 2.8499999999999996h1.9v5.725h-1.9Z" fill="#000000" stroke-width="1.25"></path>
    <path d="M2.8499999999999996 10.475000000000001V12.375h3.8125V10.475000000000001H12.375V12.375H6.6625v1.9125h1.9125v3.8H6.6625V20h1.9125v11.425H6.6625v1.9125h3.8125v1.9h3.8125v-11.425h3.8v-1.9125h-3.8v-3.8125h3.8v-1.9h-3.8v-1.9h11.425v1.9h-3.8125v1.9h3.8125v3.8125h-3.8125v1.9125h3.8125v9.525h-1.9v1.9h-1.9125v1.9h3.8125v-1.9h3.8125v-1.9h3.8v-1.9125h-1.9V20h1.9v-1.9125h-1.9v-3.8h1.9V12.375h-5.7125V10.475000000000001h5.7125V12.375h3.8125V10.475000000000001h-1.9V8.575000000000001h-1.9125V4.7625h-3.8v1.9h-3.8125v1.9125h-1.9V4.7625h-1.9125v3.8125h-3.8125V4.7625h-1.9v5.7125h-1.9V6.6625H10.475000000000001V4.7625H6.6625v3.8125H4.7625v1.9Zm15.237499999999999 0h3.8125V12.375h-3.8125Z" fill="#000000" stroke-width="1.25"></path>
    <path d="M27.6125 0.95h7.625v1.9h-7.625Z" fill="#000000" stroke-width="1.25"></path>
    <path d="M23.8125 2.8499999999999996h3.8v1.9125h-3.8Z" fill="#000000" stroke-width="1.25"></path>
    <path d="M18.087500000000002 2.8499999999999996h3.8125v1.9125h-3.8125Z" fill="#000000" stroke-width="1.25"></path>
    <path d="M18.087500000000002 37.1375h3.8125v1.9125h-3.8125Z" fill="#000000" stroke-width="1.25"></path>
    <path d="M18.087500000000002 23.8125h3.8125v1.9h-3.8125Z" fill="#000000" stroke-width="1.25"></path>
    <path d="M18.087500000000002 18.087500000000002h3.8125V20h-3.8125Z" fill="#000000" stroke-width="1.25"></path>
    <path d="M14.2875 35.237500000000004h3.8v1.9h-3.8Z" fill="#000000" stroke-width="1.25"></path>
    <path d="M12.375 2.8499999999999996h3.8125v1.9125H12.375Z" fill="#000000" stroke-width="1.25"></path>
    <path d="M4.7625 0.95H12.375v1.9H4.7625Z" fill="#000000" stroke-width="1.25"></path>
    <path d="m4.7625 29.525000000000002 0 -11.4375 1.9 0 0 -1.9 -3.8125 0 0 -3.8125 -1.9 0 0 5.7125 1.9 0 0 13.3375 3.8125 0 0 -1.9 -1.9 0z" fill="#000000" stroke-width="1.25"></path>
    <path d="M2.8499999999999996 2.8499999999999996h1.9125v5.725H2.8499999999999996Z" fill="#000000" stroke-width="1.25"></path>
  </g>
</svg>