<svg xmlns="http://www.w3.org/2000/svg" viewBox="0 0 40 40" id="Interface-Essential-Cog-Double--Streamline-Pixel" height="40" width="40">
  <desc>
    Interface Essential Cog Double Streamline Icon: https://streamlinehq.com
  </desc>
  <title>interface-essential-cog-double</title>
  <g>
    <path d="m36.1875 9.525 0 1.9 1.9125 0 0 1.9125 -1.9125 0 0 1.9 3.8125 0 0 -5.7125 -3.8125 0z" fill="#000000" stroke-width="1.25"></path>
    <path d="M36.1875 17.137500000000003h1.9125v1.9125h-1.9125Z" fill="#000000" stroke-width="1.25"></path>
    <path d="M36.1875 5.7125h1.9125v1.9h-1.9125Z" fill="#000000" stroke-width="1.25"></path>
    <path d="M34.2875 19.05h1.9v1.9h-1.9Z" fill="#000000" stroke-width="1.25"></path>
    <path d="M34.2875 15.237499999999999h1.9v1.9h-1.9Z" fill="#000000" stroke-width="1.25"></path>
    <path d="M34.2875 7.6125h1.9v1.9125h-1.9Z" fill="#000000" stroke-width="1.25"></path>
    <path d="M34.2875 3.8125h1.9v1.9h-1.9Z" fill="#000000" stroke-width="1.25"></path>
    <path d="M32.3875 20.950000000000003h1.9v1.9h-1.9Z" fill="#000000" stroke-width="1.25"></path>
    <path d="M32.3875 1.9h1.9v1.9125h-1.9Z" fill="#000000" stroke-width="1.25"></path>
    <path d="M30.474999999999998 19.05h1.9125v1.9h-1.9125Z" fill="#000000" stroke-width="1.25"></path>
    <path d="M30.474999999999998 3.8125h1.9125v1.9h-1.9125Z" fill="#000000" stroke-width="1.25"></path>
    <path d="m24.7625 0 0 3.8125 1.9125 0 0 -1.9125 1.9 0 0 1.9125 1.9 0 0 -3.8125 -5.7125 0z" fill="#000000" stroke-width="1.25"></path>
    <path d="M26.675 32.375h1.9v1.9125h-1.9Z" fill="#000000" stroke-width="1.25"></path>
    <path d="m24.7625 20.950000000000003 0 1.9 3.8125 0 0 3.8125 -3.8125 0 0 1.9125 5.7125 0 0 -7.625 -5.7125 0z" fill="#000000" stroke-width="1.25"></path>
    <path d="M24.7625 34.2875h1.9125v1.9h-1.9125Z" fill="#000000" stroke-width="1.25"></path>
    <path d="M24.7625 30.474999999999998h1.9125v1.9h-1.9125Z" fill="#000000" stroke-width="1.25"></path>
    <path d="M24.7625 17.137500000000003h1.9125v1.9125h-1.9125Z" fill="#000000" stroke-width="1.25"></path>
    <path d="m24.7625 15.237499999999999 1.9125 0 0 1.9 3.8 0 0 -1.9 1.9125 0 0 -5.7125 -1.9125 0 0 1.9 -1.9 0 0 -1.9 1.9 0 0 -1.9125 -5.7125 0 0 1.9125 -1.9 0 0 3.8125 1.9 0 0 1.9z" fill="#000000" stroke-width="1.25"></path>
    <path d="M22.862499999999997 36.1875h1.9v1.9125h-1.9Z" fill="#000000" stroke-width="1.25"></path>
    <path d="M22.862499999999997 28.575h1.9v1.9h-1.9Z" fill="#000000" stroke-width="1.25"></path>
    <path d="M22.862499999999997 19.05h1.9v1.9h-1.9Z" fill="#000000" stroke-width="1.25"></path>
    <path d="M22.862499999999997 3.8125h1.9v1.9h-1.9Z" fill="#000000" stroke-width="1.25"></path>
    <path d="M20.950000000000003 34.2875h1.9125v1.9h-1.9125Z" fill="#000000" stroke-width="1.25"></path>
    <path d="M20.950000000000003 13.3375h1.9125v1.9h-1.9125Z" fill="#000000" stroke-width="1.25"></path>
    <path d="M20.950000000000003 1.9h1.9125v1.9125h-1.9125Z" fill="#000000" stroke-width="1.25"></path>
    <path d="M19.05 32.375h1.9v1.9125h-1.9Z" fill="#000000" stroke-width="1.25"></path>
    <path d="M19.05 22.85h1.9v3.8125h-1.9Z" fill="#000000" stroke-width="1.25"></path>
    <path d="M19.05 15.237499999999999h1.9v1.9h-1.9Z" fill="#000000" stroke-width="1.25"></path>
    <path d="M19.05 3.8125h1.9v1.9h-1.9Z" fill="#000000" stroke-width="1.25"></path>
    <path d="m17.150000000000002 38.1 -3.8125 0 0 -3.8125 -1.9 0 0 5.7125 7.6125 0 0 -5.7125 -1.9 0 0 3.8125z" fill="#000000" stroke-width="1.25"></path>
    <path d="M17.150000000000002 26.662499999999998h1.9v1.9125h-1.9Z" fill="#000000" stroke-width="1.25"></path>
    <path d="M17.150000000000002 20.950000000000003h1.9v1.9h-1.9Z" fill="#000000" stroke-width="1.25"></path>
    <path d="M17.150000000000002 5.7125h1.9v1.9h-1.9Z" fill="#000000" stroke-width="1.25"></path>
    <path d="M13.3375 19.05h3.8125v1.9h-3.8125Z" fill="#000000" stroke-width="1.25"></path>
    <path d="M13.3375 28.575h3.8125v1.9h-3.8125Z" fill="#000000" stroke-width="1.25"></path>
    <path d="M11.4375 26.662499999999998h1.9v1.9125H11.4375Z" fill="#000000" stroke-width="1.25"></path>
    <path d="M11.4375 20.950000000000003h1.9v1.9H11.4375Z" fill="#000000" stroke-width="1.25"></path>
    <path d="m13.3375 11.425 3.8125 0 0 3.8125 1.9 0 0 -5.7125 -7.6125 0 0 5.7125 1.9 0 0 -3.8125z" fill="#000000" stroke-width="1.25"></path>
    <path d="M9.525 32.375h1.9125v1.9125H9.525Z" fill="#000000" stroke-width="1.25"></path>
    <path d="M9.525 22.85h1.9125v3.8125H9.525Z" fill="#000000" stroke-width="1.25"></path>
    <path d="M9.525 15.237499999999999h1.9125v1.9H9.525Z" fill="#000000" stroke-width="1.25"></path>
    <path d="M7.625 34.2875h1.9v1.9H7.625Z" fill="#000000" stroke-width="1.25"></path>
    <path d="M7.625 13.3375h1.9v1.9H7.625Z" fill="#000000" stroke-width="1.25"></path>
    <path d="M5.7125 36.1875H7.625v1.9125H5.7125Z" fill="#000000" stroke-width="1.25"></path>
    <path d="M5.7125 28.575H7.625v1.9H5.7125Z" fill="#000000" stroke-width="1.25"></path>
    <path d="M5.7125 19.05H7.625v1.9H5.7125Z" fill="#000000" stroke-width="1.25"></path>
    <path d="M5.7125 11.425H7.625v1.9125H5.7125Z" fill="#000000" stroke-width="1.25"></path>
    <path d="M3.8125 34.2875h1.9v1.9H3.8125Z" fill="#000000" stroke-width="1.25"></path>
    <path d="M3.8125 30.474999999999998h1.9v1.9H3.8125Z" fill="#000000" stroke-width="1.25"></path>
    <path d="m1.9125 26.662499999999998 0 -3.8125 3.8 0 0 -1.9 -5.7125 0 0 7.625 5.7125 0 0 -1.9125 -3.8 0z" fill="#000000" stroke-width="1.25"></path>
    <path d="M3.8125 17.137500000000003h1.9v1.9125H3.8125Z" fill="#000000" stroke-width="1.25"></path>
    <path d="M3.8125 13.3375h1.9v1.9H3.8125Z" fill="#000000" stroke-width="1.25"></path>
    <path d="M1.9125 32.375h1.9v1.9125H1.9125Z" fill="#000000" stroke-width="1.25"></path>
    <path d="M1.9125 15.237499999999999h1.9v1.9H1.9125Z" fill="#000000" stroke-width="1.25"></path>
  </g>
</svg>