<?xml version="1.0" encoding="UTF-8" standalone="no"?>
<!DOCTYPE svg PUBLIC "-//W3C//DTD SVG 1.1//EN" "http://www.w3.org/Graphics/SVG/1.1/DTD/svg11.dtd">
<svg width="100%" height="100%" viewBox="0 0 24 24" version="1.1" xmlns="http://www.w3.org/2000/svg" xmlns:xlink="http://www.w3.org/1999/xlink" xml:space="preserve" xmlns:serif="http://www.serif.com/" style="fill-rule:evenodd;clip-rule:evenodd;stroke-linejoin:round;stroke-miterlimit:2;">
    <path d="M3,22L3,23L1,23L1,22L2,22L2,21L3,21L3,20L4,20L4,19L5,19L5,18L6,18L6,17L7,17L7,16L8,16L8,15L9,15L9,14L10,14L10,13L9,13L9,12L8,12L8,11L7,11L7,9L6,9L6,8L5,8L5,7L4,7L4,5L3,5L3,4L2,4L2,1L7,1L7,2L8,2L8,3L9,3L9,4L10,4L10,6L11,6L11,7L12,7L12,8L13,8L13,9L14,9L14,8L15,8L15,7L16,7L16,6L17,6L17,5L18,5L18,4L19,4L19,3L20,3L20,2L21,2L21,1L23,1L23,2L22,2L22,3L21,3L21,4L20,4L20,5L19,5L19,6L18,6L18,7L17,7L17,8L16,8L16,9L15,9L15,10L14,10L14,11L15,11L15,12L16,12L16,13L17,13L17,15L18,15L18,16L19,16L19,17L20,17L20,19L21,19L21,20L22,20L22,23L17,23L17,22L16,22L16,21L15,21L15,20L14,20L14,18L13,18L13,17L12,17L12,16L11,16L11,15L10,15L10,16L9,16L9,17L8,17L8,18L7,18L7,19L6,19L6,20L5,20L5,21L4,21L4,22L3,22ZM11,12L11,14L12,14L12,15L13,15L13,16L14,16L14,17L15,17L15,19L16,19L16,20L17,20L17,21L18,21L18,22L21,22L21,21L20,21L20,20L19,20L19,18L18,18L18,17L17,17L17,16L16,16L16,14L15,14L15,13L14,13L14,12L13,12L13,10L12,10L12,9L11,9L11,8L10,8L10,7L9,7L9,5L8,5L8,4L7,4L7,3L6,3L6,2L3,2L3,3L4,3L4,4L5,4L5,6L6,6L6,7L7,7L7,8L8,8L8,10L9,10L9,11L10,11L10,12L11,12Z"/>
</svg>
